<svg width="1000" height="1000" viewBox="0 0 1000 1000" fill="none" xmlns="http://www.w3.org/2000/svg">
<path d="M596.81 368.3L566.58 327.11L537.25 387.41L565.55 369.93L581.99 383.85L596.81 369.04V368.3Z" fill="url(#paint0_linear_113_131)"/>
<path d="M526.25 484.22L527.36 455.55L529.36 450.66C529.36 450.66 531.8 448.22 535.58 447.33C539.36 446.44 553.36 443.77 554.02 442.89C554.68 442.01 568.46 433.63 568.46 433.63L582.24 422.22L576.68 446.22C576.68 446.22 571.79 456.22 564.46 460C557.13 463.78 541.68 474.67 541.68 474.67L526.24 484.23L526.25 484.22Z" fill="url(#paint1_linear_113_131)"/>
<path d="M499.71 434.96C499.71 434.96 525.27 391.63 532.6 375.85C539.93 360.07 549.49 346.96 554.16 332.52C558.83 318.08 561.05 307.19 560.6 304.08C560.15 300.97 565.93 307.41 565.93 307.41L574.15 291.85L579.26 277.18C579.26 277.18 572.82 258.07 569.04 252.74C565.26 247.41 564.37 245.85 564.37 245.85L554.15 269.41L544.59 294.3C544.59 294.3 540.37 299.63 541.03 307.63C541.7 315.63 544.14 318.3 544.14 318.3L534.81 330.74L521.7 348.52L517.92 352.96L506.59 357.55L502.15 362.29L499.71 362.73" fill="url(#paint2_linear_113_131)"/>
<path d="M499.66 506.67L516.33 474.67C516.33 474.67 518.55 457.78 518.55 452.67C518.55 447.56 514.11 438.89 514.11 438.89L523.67 426.89L539.45 413.78L558.56 406.67L574.12 400.89L580.79 403.11L583.23 402.89L582.12 397.11L565.01 380.44L549.68 390.66L534.79 399.55L531.68 400.22L526.12 411.78L517.45 425.34L504.12 447.56L499.68 452.23" fill="url(#paint3_linear_113_131)"/>
<path d="M564.81 417C564.81 417 561.48 424.89 555.81 428.22C550.14 431.55 540.14 436.11 534.92 436.89C529.7 437.67 528.7 437.67 528.7 437.67C528.7 437.67 525.48 437.67 531.59 432.11C537.7 426.55 543.37 423.78 549.37 420.78C555.37 417.78 562.93 416 562.93 416H564.82V417H564.81Z" fill="url(#paint4_linear_113_131)"/>
<path d="M548.81 579.82L548.07 486.73C548.07 486.73 547.62 480.33 561.03 470.35C574.43 460.37 575.63 457.54 575.63 457.54L590.52 427.75L600.05 406.3L601.09 400.79L595.88 407.05L599.75 383.96L604.37 368.17L606.6 376.51L614.79 386.94L612.26 432.96L591.86 453.1L557.6 486.28L555.81 488.66L555.21 567.3L548.81 579.81V579.82Z" fill="url(#paint5_linear_113_131)"/>
<path d="M499.7 651.29C499.7 651.29 505.03 639.73 509.03 629.66C513.03 619.59 519.55 601.07 524.14 588.03C528.73 574.99 532.58 565.22 533.33 559.88C534.08 554.54 534.81 547.73 534.66 544.32C534.51 540.91 530.81 533.65 530.81 533.65L523.55 527.72L522.51 516.31L520.58 504.75L509.77 514.97L500.58 525.04L499.69 525.19" fill="url(#paint6_linear_113_131)"/>
<path d="M533.81 702.89L512.25 696.22L510.69 667.33L541.8 637.11V626.89L585.13 588.89C585.13 588.89 584.91 604 583.57 613.11C582.24 622.22 580.24 629.11 578.9 636C577.56 642.89 563.12 667.33 563.12 667.33L550.45 685.55L533.78 702.88L533.81 702.89Z" fill="url(#paint7_linear_113_131)"/>
<path d="M672.1 518.96L662.77 508.29L645.88 495.99C645.88 495.99 624.4 530.95 624.1 531.4C623.8 531.85 613.14 550.36 609.43 557.03C605.72 563.7 605.13 563.84 602.17 570.36C599.21 576.88 595.95 583.69 594.47 585.77C592.99 587.85 591.36 587.1 593.58 590.36C595.8 593.62 602.02 598.95 602.91 599.25C603.8 599.55 607.21 601.32 607.21 601.32C607.21 601.32 615.8 582.51 618.62 577.62C621.44 572.73 623.81 567.99 626.47 563.55C629.13 559.11 634.91 549.48 639.21 545.18C643.51 540.88 652.84 533.92 655.8 531.55C658.76 529.18 663.36 525.03 667.06 522.36C670.76 519.69 672.1 518.95 672.1 518.95V518.96Z" fill="url(#paint8_linear_113_131)"/>
<path d="M735.78 575.29L738.23 569.06C738.23 569.06 709.1 561.72 704.43 560.61C699.76 559.5 682.64 555.27 674.63 553.94C666.62 552.61 651.28 548.83 648.83 548.6C646.38 548.37 641.94 556.38 638.38 561.94C634.82 567.5 625.48 580.84 625.04 582.18C624.6 583.52 627.93 592.63 629.04 595.08C630.15 597.53 645.05 597.97 645.05 597.97L652.61 601.31L653.5 620.88L651.72 666.03L649.72 671.81L622.81 693.38V704.72C622.81 704.72 624.14 705.16 626.37 704.72C628.6 704.28 641.05 694.71 641.05 694.71L655.95 682.03C655.95 682.03 657.51 681.36 663.07 661.79C668.63 642.22 671.82 603.97 671.82 603.97V595.07C671.82 595.07 684.64 586.62 687.54 583.06C690.43 579.5 699.55 571.05 699.55 571.05L702.44 569.94L713.78 572.16C713.78 572.16 719.78 573.94 722.45 574.16L735.79 575.27L735.78 575.29Z" fill="url(#paint9_linear_113_131)"/>
<path d="M733.62 582.67L729.77 616.15L707.55 639.26L670.81 672.44L678.81 649.93L679.1 607.56L680.84 603.41L705.47 575.85L733.62 582.67Z" fill="url(#paint10_linear_113_131)"/>
<path d="M749.81 579.26V566.37L745.81 563.11V558.37C746.03 558.37 753.44 543.85 757.59 532C761.74 520.15 761.74 518.07 765.89 501.48C770.04 484.89 771.22 476.29 772.11 467.41C773 458.52 773 451.11 773.3 443.11C773.6 435.11 773.3 430.07 773.3 430.07L785.74 436C785.74 436 787.22 439.85 786.93 450.81C786.64 461.77 785.15 476 785.15 476C785.15 476 783.37 492.89 781.3 502.96C779.23 513.03 768.26 543.85 768.26 543.85C768.26 543.85 757.59 568.89 754.04 574.07C750.49 579.25 749.82 579.26 749.82 579.26H749.81Z" fill="url(#paint11_linear_113_131)"/>
<path d="M814.47 478.81L803.8 468L793.73 521.19C793.73 521.19 789.66 537.34 786.95 544.6C784.24 551.86 773.13 576.01 770.61 580.6C768.09 585.19 761.42 599.27 759.2 602.08C756.98 604.89 756.98 610.38 756.98 610.82C756.98 611.26 729.72 641.34 729.72 641.34L702.16 665.78L661.12 702.89L677.56 704.87L694.89 690.23C694.89 690.23 730.45 653.79 733.56 649.34C736.67 644.9 757.12 617.78 757.12 617.78L766.47 608.45C766.47 608.45 780.31 588.45 786.93 574.23C793.55 560.01 802.89 533.34 802.89 533.34C802.89 533.34 806.45 519.56 807.78 511.56C809.11 503.56 814.45 478.82 814.45 478.82L814.47 478.81Z" fill="url(#paint12_linear_113_131)"/>
<path d="M811.21 413.89L760.84 384.85C760.84 384.85 754.62 385.44 751.95 363.22L749.28 341H757.87L831.06 383.37L837.87 391.37L835.5 397L824.83 406.78L811.2 413.89H811.21Z" fill="url(#paint13_linear_113_131)"/>
<path d="M810.92 366.37L800.25 361.63C800.25 361.63 798.18 348.59 792.25 331.41C786.32 314.23 778.92 291.11 776.25 286.97C773.58 282.83 780.4 276.9 780.4 276.9L788.4 289.94C788.4 289.94 797.59 313.64 799.36 319.87C801.13 326.1 804.99 337.06 806.47 345.06C807.95 353.06 810.91 366.39 810.91 366.39L810.92 366.37Z" fill="url(#paint14_linear_113_131)"/>
<path d="M729.73 554.22L718.17 550.66C718.17 550.66 729.13 526.66 733.58 508.88C738.02 491.1 738.62 487.1 741.58 473.99C744.54 460.88 746.91 447.25 746.02 432.14C745.13 417.03 746.32 409.03 743.95 398.07C741.58 387.11 733.58 352.74 733.58 352.74C733.58 352.74 725.88 332.3 723.21 327.11C720.54 321.92 714.91 313.33 714.91 313.33L722.91 303.55L732.39 318.96L741.87 341.48C741.87 341.48 746.91 357.48 749.28 366.37C751.65 375.26 755.8 387.41 755.8 387.41L757.58 434.67L755.51 468L748.1 504.67L729.73 554.23V554.22Z" fill="url(#paint15_linear_113_131)"/>
<path d="M719.66 437.67L697.44 416L694.47 422.22L707.07 437.67L669.58 476.3L719.66 437.67Z" fill="url(#paint16_linear_113_131)"/>
<path d="M675.51 443.11L655.07 459.41L652.1 448.15L658.33 447.85L675.51 443.11Z" fill="url(#paint17_linear_113_131)"/>
<path d="M684.81 416L681.84 412.89L664.95 431.85L684.81 417.63V416Z" fill="url(#paint18_linear_113_131)"/>
<path d="M639.33 417.63L637.55 409.33L624.81 422.22V430.07L639.33 417.63Z" fill="url(#paint19_linear_113_131)"/>
<path d="M656.81 402V398.44L686.81 366.15V351.93L694.81 364.07V368.52L658.26 402H656.81Z" fill="url(#paint20_linear_113_131)"/>
<path d="M620.99 451.26L616.25 446.15L603.21 468C603.21 468 599.95 472.44 596.99 484.22C594.03 496 592.49 501.18 592.49 501.18L609.13 470.07L620.98 451.26H620.99Z" fill="url(#paint21_linear_113_131)"/>
<path d="M587.07 342.67L570.77 320.59L585.58 287.26L623.81 257.04L638.33 244.3L642.62 231.85L641.14 201.04L629.73 159.7L616.55 126.37L599.66 93.63L580.1 65.33L606.7 92.3L626.33 116.59L645.29 135.7L667.51 163.11L677.73 183.11L684.4 211.41L690.62 238.96L688.99 242.81L696.84 246.22L690.18 256.59L676.55 280.44L657.88 300.3L631.07 334.07L615.95 350.81L602.92 361.48L587.07 342.67Z" fill="url(#paint22_linear_113_131)"/>
<path d="M499.66 341.48L523.66 312.74V232.74L499.66 183.26" fill="url(#paint23_linear_113_131)"/>
<path d="M602.81 248.15V209.33L517.18 151.85L515.7 158.37L597.18 213.41L602.81 248.15Z" fill="url(#paint24_linear_113_131)"/>
<path d="M421.81 255.56V221.19L435.14 213.41L438.7 218.81L430.25 227.11L431.58 240.44L421.81 255.56Z" fill="url(#paint25_linear_113_131)"/>
<path d="M479.81 140.3V129.93L481.88 124C481.88 124 486.03 121.04 467.66 124C449.29 126.96 430.47 130.52 430.47 130.52C430.47 130.52 397.43 137.93 392.4 142.08C387.37 146.23 385.88 148.01 385.88 148.01H392.69L397.43 151.86L444.24 141.19L448.98 145.34L479.79 140.3H479.81Z" fill="url(#paint26_linear_113_131)"/>
<path d="M722.25 188.44C722.25 188.44 700.69 162.88 694.25 158.44C687.81 154 667.58 138.97 665.36 137.26C663.14 135.55 637.8 117.77 637.8 117.77L627.8 111.33L655.58 143.33L665.8 149.89L684.24 162L696.83 170.44L709.57 180.44L722.24 188.44H722.25Z" fill="url(#paint27_linear_113_131)"/>
<path d="M729.58 218.67L720.92 228.67L693.81 203.78L684.25 196L676.47 172.22L699.58 190.22L710.7 200.44L722.25 210.89L729.58 218.67Z" fill="url(#paint28_linear_113_131)"/>
<path d="M616.4 671.85L608.4 662.22L585.88 654.52L573.44 677.48L574.47 695.56L604.7 696.3L616.4 671.85Z" fill="url(#paint29_linear_113_131)"/>
<path d="M625.44 665L614.92 650.93L591.51 646.15L609.88 613.89L639.07 621.3L637.44 646.15L631.07 648.26L636.84 654.78L626.18 665H625.44Z" fill="url(#paint30_linear_113_131)"/>
<path d="M652.84 473.67L643.21 461.19L630.18 473.67L631.07 477.19L641.51 468L650.47 477.19L652.84 473.67Z" fill="url(#paint31_linear_113_131)"/>
<path d="M776.81 244.32L775.01 239.6L745.53 206.55L704.81 248.16V254.06L699.2 270.62L721.85 295.67L776.81 245.58V244.32Z" fill="url(#paint32_linear_113_131)"/>
<path d="M716.1 299.41L699.51 281.04L696.84 276.89L694.62 280.44L693.36 284.07L711.14 304.37L716.1 299.41Z" fill="url(#paint33_linear_113_131)"/>
<path d="M706.62 308.81L694.84 295.26L689.14 292.52L690.1 300.07L700.55 314.3L706.62 308.81Z" fill="url(#paint34_linear_113_131)"/>
<path d="M696.84 321.63L687.66 311.7L675.73 329.19L680.7 337.33L695.95 322.37L696.84 321.63Z" fill="url(#paint35_linear_113_131)"/>
<path d="M667.29 352.74L660.03 341.48L629.81 367.26V384.15L667.29 352.74Z" fill="url(#paint36_linear_113_131)"/>
<path d="M761.58 241.93L731.21 272.3L729.58 246.22L761.58 241.93Z" fill="url(#paint37_linear_113_131)"/>
<path d="M499.81 767.56L562.03 760.45C624.25 753.34 665.14 719.56 665.14 719.56L652.1 712.45C652.1 712.45 602.47 744.45 544.25 748.01C486.03 751.57 499.81 750.68 499.81 750.68" fill="url(#paint38_linear_113_131)"/>
<path d="M441.62 559.22L436.06 542.74L434.81 508.08V489.33L428.67 476.94L425.83 475.35L429.81 492.28L429.47 542.51L442.19 563.65L441.62 559.22Z" fill="url(#paint39_linear_113_131)"/>
<path d="M450.14 597L429.03 573.89L400.47 545.44L419.14 577.41L450.14 597Z" fill="url(#paint40_linear_113_131)"/>
<path d="M499.64 735.94H504.27H539.38L589.71 719.84L581.36 714.47L534.56 718.94L499.64 719.39" fill="url(#paint41_linear_113_131)"/>
<path d="M799.14 391.33L769.36 375.89L768.14 371.33L802.81 388.11L799.14 391.33Z" fill="url(#paint42_linear_113_131)"/>
<path d="M777.44 346.67L761.58 337.33L750.47 312.67L740.25 295.85L753.14 282.44L763.14 301.33L768.14 316.22L773.81 330.89L777.44 346.67Z" fill="url(#paint43_linear_113_131)"/>
<path d="M852.77 463.93L866.77 454.59L867.44 435.26L866.92 431.78L852.33 421.78L850.1 420.96L830.84 431.04L830.33 452.15L845.44 463.93L846.25 452.59L851.88 452.44L852.77 463.93Z" fill="url(#paint44_linear_113_131)"/>
<path d="M880.81 458.03V424.63L850.98 406.58L819.81 427.61V458.03L849.23 477.27L880.81 458.03Z" fill="url(#paint45_linear_113_131)"/>
<path d="M403 368.3L433.22 327.11L462.56 387.41L434.26 369.93L417.81 383.85L403 369.04V368.3Z" fill="url(#paint46_linear_113_131)"/>
<path d="M473.56 484.22L472.45 455.55L470.45 450.66C470.45 450.66 468.01 448.22 464.23 447.33C460.45 446.44 446.45 443.77 445.79 442.89C445.13 442.01 431.35 433.63 431.35 433.63L417.57 422.22L423.13 446.22C423.13 446.22 428.02 456.22 435.35 460C442.68 463.78 458.13 474.67 458.13 474.67L473.57 484.23L473.56 484.22Z" fill="url(#paint47_linear_113_131)"/>
<path d="M500.09 434.96C500.09 434.96 474.53 391.63 467.2 375.85C459.87 360.07 450.31 346.96 445.64 332.52C440.97 318.08 438.75 307.19 439.2 304.08C439.65 300.97 433.87 307.41 433.87 307.41L425.65 291.85L420.54 277.18C420.54 277.18 426.98 258.07 430.76 252.74C434.54 247.41 435.43 245.85 435.43 245.85L445.65 269.41L455.21 294.3C455.21 294.3 459.43 299.63 458.77 307.63C458.11 315.63 455.66 318.3 455.66 318.3L464.99 330.74L478.1 348.52L481.88 352.96L493.21 357.55L497.65 362.29L500.09 362.73" fill="url(#paint48_linear_113_131)"/>
<path d="M500.15 506.67L483.48 474.67C483.48 474.67 481.26 457.78 481.26 452.67C481.26 447.56 485.7 438.89 485.7 438.89L476.14 426.89L460.36 413.78L441.25 406.67L425.69 400.89L419.02 403.11L416.58 402.89L417.69 397.11L434.8 380.44L450.13 390.66L465.02 399.55L468.13 400.22L473.69 411.78L482.36 425.34L495.69 447.56L500.13 452.23" fill="url(#paint49_linear_113_131)"/>
<path d="M435 417C435 417 438.33 424.89 444 428.22C449.67 431.55 459.67 436.11 464.89 436.89C470.11 437.67 471.11 437.67 471.11 437.67C471.11 437.67 474.33 437.67 468.22 432.11C462.11 426.55 456.44 423.78 450.44 420.78C444.44 417.78 436.88 416 436.88 416H434.99V417H435Z" fill="url(#paint50_linear_113_131)"/>
<path d="M451 579.82L451.74 486.73C451.74 486.73 452.19 480.33 438.78 470.35C425.38 460.37 424.18 457.54 424.18 457.54L409.29 427.75L399.76 406.3L398.72 400.79L403.93 407.05L400.06 383.96L395.44 368.17L393.21 376.51L385.02 386.94L387.55 432.96L407.95 453.1L442.21 486.28L444 488.66L444.6 567.3L451 579.81V579.82Z" fill="url(#paint51_linear_113_131)"/>
<path d="M500.11 651.29C500.11 651.29 494.78 639.73 490.78 629.66C486.78 619.59 480.26 601.07 475.67 588.03C471.08 574.99 467.23 565.22 466.48 559.88C465.73 554.54 465 547.73 465.15 544.32C465.3 540.91 469 533.65 469 533.65L476.26 527.72L477.3 516.31L479.23 504.75L490.04 514.97L499.23 525.04L500.12 525.19" fill="url(#paint52_linear_113_131)"/>
<path d="M466 702.89L487.56 696.22L489.12 667.33L458.01 637.11V626.89L414.68 588.89C414.68 588.89 414.9 604 416.24 613.11C417.58 622.22 419.57 629.11 420.91 636C422.25 642.89 436.69 667.33 436.69 667.33L449.36 685.55L466.03 702.88L466 702.89Z" fill="url(#paint53_linear_113_131)"/>
<path d="M327.7 518.96L337.03 508.29L353.92 495.99C353.92 495.99 375.4 530.95 375.7 531.4C376 531.85 386.66 550.36 390.37 557.03C394.08 563.7 394.67 563.84 397.63 570.36C400.59 576.88 403.85 583.69 405.33 585.77C406.81 587.85 408.44 587.1 406.22 590.36C404 593.62 397.78 598.95 396.89 599.25C396 599.55 392.59 601.32 392.59 601.32C392.59 601.32 384 582.51 381.18 577.62C378.36 572.73 375.99 567.99 373.33 563.55C370.67 559.11 364.89 549.48 360.59 545.18C356.29 540.88 346.96 533.92 344 531.55C341.04 529.18 336.44 525.03 332.74 522.36C329.04 519.69 327.7 518.95 327.7 518.95V518.96Z" fill="url(#paint54_linear_113_131)"/>
<path d="M264.03 575.29L261.58 569.06C261.58 569.06 290.71 561.72 295.38 560.61C300.05 559.5 317.17 555.27 325.18 553.94C333.19 552.61 348.53 548.83 350.98 548.6C353.43 548.37 357.87 556.38 361.43 561.94C364.99 567.5 374.33 580.84 374.77 582.18C375.21 583.52 371.88 592.63 370.77 595.08C369.66 597.53 354.76 597.97 354.76 597.97L347.2 601.31L346.31 620.88L348.09 666.03L350.09 671.81L377 693.38V704.72C377 704.72 375.67 705.16 373.44 704.72C371.21 704.28 358.76 694.71 358.76 694.71L343.86 682.03C343.86 682.03 342.3 681.36 336.74 661.79C331.18 642.22 327.99 603.97 327.99 603.97V595.07C327.99 595.07 315.17 586.62 312.27 583.06C309.37 579.5 300.26 571.05 300.26 571.05L297.37 569.94L286.03 572.16C286.03 572.16 280.03 573.94 277.36 574.16L264.02 575.27L264.03 575.29Z" fill="url(#paint55_linear_113_131)"/>
<path d="M266.19 582.67L270.04 616.15L292.26 639.26L329 672.44L321 649.93L320.7 607.56L318.96 603.41L294.33 575.85L266.19 582.67Z" fill="url(#paint56_linear_113_131)"/>
<path d="M250 579.26V566.37L254 563.11V558.37C253.78 558.37 246.37 543.85 242.22 532C238.07 520.15 238.07 518.07 233.92 501.48C229.77 484.89 228.59 476.29 227.7 467.41C226.81 458.52 226.81 451.11 226.51 443.11C226.21 435.11 226.51 430.07 226.51 430.07L214.07 436C214.07 436 212.59 439.85 212.88 450.81C213.17 461.77 214.66 476 214.66 476C214.66 476 216.44 492.89 218.51 502.96C220.58 513.03 231.55 543.85 231.55 543.85C231.55 543.85 242.22 568.89 245.77 574.07C249.32 579.25 249.99 579.26 249.99 579.26H250Z" fill="url(#paint57_linear_113_131)"/>
<path d="M185.33 478.81L196 468L206.07 521.19C206.07 521.19 210.14 537.34 212.85 544.6C215.56 551.86 226.67 576.01 229.19 580.6C231.71 585.19 238.38 599.27 240.6 602.08C242.82 604.89 242.82 610.38 242.82 610.82C242.82 611.26 270.08 641.34 270.08 641.34L297.64 665.78L338.68 702.89L322.24 704.87L304.91 690.23C304.91 690.23 269.35 653.79 266.24 649.34C263.13 644.89 242.68 617.78 242.68 617.78L233.33 608.45C233.33 608.45 219.49 588.45 212.87 574.23C206.25 560.01 196.91 533.34 196.91 533.34C196.91 533.34 193.35 519.56 192.02 511.56C190.69 503.56 185.35 478.82 185.35 478.82L185.33 478.81Z" fill="url(#paint58_linear_113_131)"/>
<path d="M188.59 413.89L238.96 384.85C238.96 384.85 245.18 385.44 247.85 363.22L250.52 341H241.93L168.74 383.37L161.93 391.37L164.3 397L174.97 406.78L188.6 413.89H188.59Z" fill="url(#paint59_linear_113_131)"/>
<path d="M188.89 366.37L199.56 361.63C199.56 361.63 201.63 348.59 207.56 331.41C213.49 314.23 220.89 291.11 223.56 286.97C226.23 282.83 219.41 276.9 219.41 276.9L211.41 289.94C211.41 289.94 202.22 313.64 200.45 319.87C198.68 326.1 194.82 337.06 193.34 345.06C191.86 353.06 188.9 366.39 188.9 366.39L188.89 366.37Z" fill="url(#paint60_linear_113_131)"/>
<path d="M270.07 554.22L281.63 550.66C281.63 550.66 270.67 526.66 266.22 508.88C261.77 491.1 261.18 487.1 258.22 473.99C255.26 460.88 252.89 447.25 253.78 432.14C254.67 417.03 253.48 409.03 255.85 398.07C258.22 387.11 266.22 352.74 266.22 352.74C266.22 352.74 273.92 332.3 276.59 327.11C279.26 321.92 284.89 313.33 284.89 313.33L276.89 303.55L267.41 318.96L257.93 341.48C257.93 341.48 252.89 357.48 250.52 366.37C248.15 375.26 244 387.41 244 387.41L242.22 434.67L244.29 468L251.7 504.67L270.07 554.23V554.22Z" fill="url(#paint61_linear_113_131)"/>
<path d="M280.15 437.67L302.37 416L305.33 422.22L292.74 437.67L330.22 476.3L280.15 437.67Z" fill="url(#paint62_linear_113_131)"/>
<path d="M324.3 443.11L344.74 459.41L347.7 448.15L341.48 447.85L324.3 443.11Z" fill="url(#paint63_linear_113_131)"/>
<path d="M315 416L317.96 412.89L334.85 431.85L315 417.63V416Z" fill="url(#paint64_linear_113_131)"/>
<path d="M360.48 417.63L362.26 409.33L375 422.22V430.07L360.48 417.63Z" fill="url(#paint65_linear_113_131)"/>
<path d="M343 402V398.44L313 366.15V351.93L305 364.07V368.52L341.55 402H343Z" fill="url(#paint66_linear_113_131)"/>
<path d="M378.81 451.26L383.55 446.15L396.59 468C396.59 468 399.85 472.44 402.81 484.22C405.77 496 407.31 501.18 407.31 501.18L390.67 470.07L378.82 451.26H378.81Z" fill="url(#paint67_linear_113_131)"/>
<path d="M412.74 342.67L429.04 320.59L414.22 287.26L376 257.04L361.48 244.3L357.19 231.85L358.67 201.04L370.07 159.7L383.26 126.37L400.15 93.63L419.7 65.33L393.11 92.3L373.48 116.59L354.52 135.7L332.3 163.11L322.07 183.11L315.41 211.41L309.19 238.96L310.81 242.81L302.96 246.22L309.63 256.59L323.26 280.44L341.93 300.3L368.74 334.07L383.85 350.81L396.89 361.48L412.74 342.67Z" fill="url(#paint68_linear_113_131)"/>
<path d="M500.15 341.48L476.15 312.74V232.74L500.15 183.26" fill="url(#paint69_linear_113_131)"/>
<path d="M397 248.15V209.33L482.63 151.85L484.11 158.37L402.63 213.41L397 248.15Z" fill="url(#paint70_linear_113_131)"/>
<path d="M578 255.56V221.19L564.67 213.41L561.11 218.81L569.56 227.11L568.22 240.44L578 255.56Z" fill="url(#paint71_linear_113_131)"/>
<path d="M520 140.3V129.93L517.93 124C517.93 124 513.78 121.04 532.15 124C550.52 126.96 569.34 130.52 569.34 130.52C569.34 130.52 602.38 137.93 607.41 142.08C612.44 146.23 613.93 148.01 613.93 148.01H607.12L602.38 151.86L555.57 141.19L550.83 145.34L520.02 140.3H520Z" fill="url(#paint72_linear_113_131)"/>
<path d="M277.56 188.44C277.56 188.44 299.12 162.88 305.56 158.44C312 154 332.23 138.97 334.45 137.26C336.67 135.55 362.01 117.77 362.01 117.77L372.01 111.33L344.23 143.33L334.01 149.89L315.57 162L302.98 170.44L290.24 180.44L277.57 188.44H277.56Z" fill="url(#paint73_linear_113_131)"/>
<path d="M270.22 218.67L278.89 228.67L306 203.78L315.56 196L323.33 172.22L300.22 190.22L289.11 200.44L277.56 210.89L270.22 218.67Z" fill="url(#paint74_linear_113_131)"/>
<path d="M383.41 671.85L391.41 662.22L413.93 654.52L426.37 677.48L425.33 695.56L395.11 696.3L383.41 671.85Z" fill="url(#paint75_linear_113_131)"/>
<path d="M374.37 665L384.89 650.93L408.3 646.15L389.93 613.89L360.74 621.3L362.37 646.15L368.74 648.26L362.96 654.78L373.63 665H374.37Z" fill="url(#paint76_linear_113_131)"/>
<path d="M346.96 473.67L356.59 461.19L369.63 473.67L368.74 477.19L358.3 468L349.33 477.19L346.96 473.67Z" fill="url(#paint77_linear_113_131)"/>
<path d="M223 244.32L224.8 239.6L254.28 206.55L295 248.16V254.06L300.61 270.62L277.96 295.67L223 245.58V244.32Z" fill="url(#paint78_linear_113_131)"/>
<path d="M283.7 299.41L300.3 281.04L302.96 276.89L305.19 280.44L306.44 284.07L288.67 304.37L283.7 299.41Z" fill="url(#paint79_linear_113_131)"/>
<path d="M293.19 308.81L304.96 295.26L310.67 292.52L309.7 300.07L299.26 314.3L293.19 308.81Z" fill="url(#paint80_linear_113_131)"/>
<path d="M302.96 321.63L312.15 311.7L324.07 329.19L319.11 337.33L303.85 322.37L302.96 321.63Z" fill="url(#paint81_linear_113_131)"/>
<path d="M332.52 352.74L339.78 341.48L370 367.26V384.15L332.52 352.74Z" fill="url(#paint82_linear_113_131)"/>
<path d="M238.22 241.93L268.59 272.3L270.22 246.22L238.22 241.93Z" fill="url(#paint83_linear_113_131)"/>
<path d="M500 767.56L437.78 760.45C375.56 753.34 334.67 719.56 334.67 719.56L347.71 712.45C347.71 712.45 397.34 744.45 455.56 748.01C513.78 751.57 500 750.68 500 750.68" fill="url(#paint84_linear_113_131)"/>
<path d="M558.18 559.22L563.75 542.74L565 508.08V489.33L571.14 476.94L573.98 475.35L570 492.28L570.34 542.51L557.61 563.65L558.18 559.22Z" fill="url(#paint85_linear_113_131)"/>
<path d="M549.67 597L570.78 573.89L599.33 545.44L580.67 577.41L549.67 597Z" fill="url(#paint86_linear_113_131)"/>
<path d="M500.17 735.94H495.54H460.42L410.09 719.84L418.45 714.47L465.25 718.94L500.17 719.39" fill="url(#paint87_linear_113_131)"/>
<path d="M200.67 391.33L230.44 375.89L231.67 371.33L197 388.11L200.67 391.33Z" fill="url(#paint88_linear_113_131)"/>
<path d="M222.37 346.67L238.22 337.33L249.33 312.67L259.56 295.85L246.67 282.44L236.67 301.33L231.67 316.22L226 330.89L222.37 346.67Z" fill="url(#paint89_linear_113_131)"/>
<path d="M147.04 463.93L133.04 454.59L132.37 435.26L132.89 431.78L147.48 421.78L149.7 420.96L168.96 431.04L169.48 452.15L154.37 463.93L153.56 452.59L147.93 452.44L147.04 463.93Z" fill="url(#paint90_linear_113_131)"/>
<path d="M119 458.03V424.63L148.83 406.58L180 427.61V458.03L150.58 477.27L119 458.03Z" fill="url(#paint91_linear_113_131)"/>
<defs>
<linearGradient id="paint0_linear_113_131" x1="537.25" y1="357.26" x2="596.81" y2="357.26" gradientUnits="userSpaceOnUse">
<stop stop-color="#B9B9B9"/>
<stop offset="1" stop-color="#325894"/>
</linearGradient>
<linearGradient id="paint1_linear_113_131" x1="526.24" y1="453.225" x2="582.24" y2="453.225" gradientUnits="userSpaceOnUse">
<stop stop-color="#B9B9B9"/>
<stop offset="1" stop-color="#325894"/>
</linearGradient>
<linearGradient id="paint2_linear_113_131" x1="499.71" y1="340.405" x2="579.26" y2="340.405" gradientUnits="userSpaceOnUse">
<stop stop-color="#B9B9B9"/>
<stop offset="1" stop-color="#325894"/>
</linearGradient>
<linearGradient id="paint3_linear_113_131" x1="499.66" y1="443.555" x2="583.23" y2="443.555" gradientUnits="userSpaceOnUse">
<stop stop-color="#B9B9B9"/>
<stop offset="1" stop-color="#325894"/>
</linearGradient>
<linearGradient id="paint4_linear_113_131" x1="527.852" y1="426.835" x2="564.82" y2="426.835" gradientUnits="userSpaceOnUse">
<stop stop-color="#B9B9B9"/>
<stop offset="1" stop-color="#325894"/>
</linearGradient>
<linearGradient id="paint5_linear_113_131" x1="548.068" y1="473.995" x2="614.79" y2="473.995" gradientUnits="userSpaceOnUse">
<stop stop-color="#B9B9B9"/>
<stop offset="1" stop-color="#325894"/>
</linearGradient>
<linearGradient id="paint6_linear_113_131" x1="499.69" y1="578.02" x2="534.68" y2="578.02" gradientUnits="userSpaceOnUse">
<stop stop-color="#B9B9B9"/>
<stop offset="1" stop-color="#325894"/>
</linearGradient>
<linearGradient id="paint7_linear_113_131" x1="510.69" y1="645.89" x2="585.13" y2="645.89" gradientUnits="userSpaceOnUse">
<stop stop-color="#B9B9B9"/>
<stop offset="1" stop-color="#325894"/>
</linearGradient>
<linearGradient id="paint8_linear_113_131" x1="592.492" y1="548.655" x2="672.1" y2="548.655" gradientUnits="userSpaceOnUse">
<stop stop-color="#B9B9B9"/>
<stop offset="1" stop-color="#325894"/>
</linearGradient>
<linearGradient id="paint9_linear_113_131" x1="622.81" y1="626.755" x2="738.23" y2="626.755" gradientUnits="userSpaceOnUse">
<stop stop-color="#B9B9B9"/>
<stop offset="1" stop-color="#325894"/>
</linearGradient>
<linearGradient id="paint10_linear_113_131" x1="670.81" y1="624.145" x2="733.62" y2="624.145" gradientUnits="userSpaceOnUse">
<stop stop-color="#B9B9B9"/>
<stop offset="1" stop-color="#325894"/>
</linearGradient>
<linearGradient id="paint11_linear_113_131" x1="745.81" y1="504.665" x2="786.968" y2="504.665" gradientUnits="userSpaceOnUse">
<stop stop-color="#B9B9B9"/>
<stop offset="1" stop-color="#325894"/>
</linearGradient>
<linearGradient id="paint12_linear_113_131" x1="661.12" y1="586.435" x2="814.47" y2="586.435" gradientUnits="userSpaceOnUse">
<stop stop-color="#B9B9B9"/>
<stop offset="1" stop-color="#325894"/>
</linearGradient>
<linearGradient id="paint13_linear_113_131" x1="749.28" y1="377.445" x2="837.87" y2="377.445" gradientUnits="userSpaceOnUse">
<stop stop-color="#B9B9B9"/>
<stop offset="1" stop-color="#325894"/>
</linearGradient>
<linearGradient id="paint14_linear_113_131" x1="775.63" y1="321.645" x2="810.92" y2="321.645" gradientUnits="userSpaceOnUse">
<stop stop-color="#B9B9B9"/>
<stop offset="1" stop-color="#325894"/>
</linearGradient>
<linearGradient id="paint15_linear_113_131" x1="714.91" y1="428.89" x2="757.58" y2="428.89" gradientUnits="userSpaceOnUse">
<stop stop-color="#B9B9B9"/>
<stop offset="1" stop-color="#325894"/>
</linearGradient>
<linearGradient id="paint16_linear_113_131" x1="669.58" y1="446.15" x2="719.66" y2="446.15" gradientUnits="userSpaceOnUse">
<stop stop-color="#B9B9B9"/>
<stop offset="1" stop-color="#325894"/>
</linearGradient>
<linearGradient id="paint17_linear_113_131" x1="652.1" y1="451.26" x2="675.51" y2="451.26" gradientUnits="userSpaceOnUse">
<stop stop-color="#B9B9B9"/>
<stop offset="1" stop-color="#325894"/>
</linearGradient>
<linearGradient id="paint18_linear_113_131" x1="664.95" y1="422.37" x2="684.81" y2="422.37" gradientUnits="userSpaceOnUse">
<stop stop-color="#B9B9B9"/>
<stop offset="1" stop-color="#325894"/>
</linearGradient>
<linearGradient id="paint19_linear_113_131" x1="624.81" y1="419.7" x2="639.33" y2="419.7" gradientUnits="userSpaceOnUse">
<stop stop-color="#B9B9B9"/>
<stop offset="1" stop-color="#325894"/>
</linearGradient>
<linearGradient id="paint20_linear_113_131" x1="656.81" y1="376.965" x2="694.81" y2="376.965" gradientUnits="userSpaceOnUse">
<stop stop-color="#B9B9B9"/>
<stop offset="1" stop-color="#325894"/>
</linearGradient>
<linearGradient id="paint21_linear_113_131" x1="592.49" y1="473.665" x2="620.99" y2="473.665" gradientUnits="userSpaceOnUse">
<stop stop-color="#B9B9B9"/>
<stop offset="1" stop-color="#325894"/>
</linearGradient>
<linearGradient id="paint22_linear_113_131" x1="570.77" y1="213.405" x2="696.84" y2="213.405" gradientUnits="userSpaceOnUse">
<stop stop-color="#B9B9B9"/>
<stop offset="1" stop-color="#325894"/>
</linearGradient>
<linearGradient id="paint23_linear_113_131" x1="499.66" y1="262.37" x2="523.66" y2="262.37" gradientUnits="userSpaceOnUse">
<stop stop-color="#B9B9B9"/>
<stop offset="1" stop-color="#325894"/>
</linearGradient>
<linearGradient id="paint24_linear_113_131" x1="515.7" y1="200" x2="602.81" y2="200" gradientUnits="userSpaceOnUse">
<stop stop-color="#B9B9B9"/>
<stop offset="1" stop-color="#325894"/>
</linearGradient>
<linearGradient id="paint25_linear_113_131" x1="421.81" y1="234.485" x2="438.7" y2="234.485" gradientUnits="userSpaceOnUse">
<stop stop-color="#B9B9B9"/>
<stop offset="1" stop-color="#325894"/>
</linearGradient>
<linearGradient id="paint26_linear_113_131" x1="385.88" y1="137.272" x2="482.282" y2="137.272" gradientUnits="userSpaceOnUse">
<stop stop-color="#B9B9B9"/>
<stop offset="1" stop-color="#325894"/>
</linearGradient>
<linearGradient id="paint27_linear_113_131" x1="627.8" y1="149.885" x2="722.25" y2="149.885" gradientUnits="userSpaceOnUse">
<stop stop-color="#B9B9B9"/>
<stop offset="1" stop-color="#325894"/>
</linearGradient>
<linearGradient id="paint28_linear_113_131" x1="676.47" y1="200.445" x2="729.58" y2="200.445" gradientUnits="userSpaceOnUse">
<stop stop-color="#B9B9B9"/>
<stop offset="1" stop-color="#325894"/>
</linearGradient>
<linearGradient id="paint29_linear_113_131" x1="573.44" y1="675.41" x2="616.4" y2="675.41" gradientUnits="userSpaceOnUse">
<stop stop-color="#B9B9B9"/>
<stop offset="1" stop-color="#325894"/>
</linearGradient>
<linearGradient id="paint30_linear_113_131" x1="591.51" y1="639.445" x2="639.07" y2="639.445" gradientUnits="userSpaceOnUse">
<stop stop-color="#B9B9B9"/>
<stop offset="1" stop-color="#325894"/>
</linearGradient>
<linearGradient id="paint31_linear_113_131" x1="630.18" y1="469.19" x2="652.84" y2="469.19" gradientUnits="userSpaceOnUse">
<stop stop-color="#B9B9B9"/>
<stop offset="1" stop-color="#325894"/>
</linearGradient>
<linearGradient id="paint32_linear_113_131" x1="699.2" y1="251.11" x2="776.81" y2="251.11" gradientUnits="userSpaceOnUse">
<stop stop-color="#B9B9B9"/>
<stop offset="1" stop-color="#325894"/>
</linearGradient>
<linearGradient id="paint33_linear_113_131" x1="693.36" y1="290.63" x2="716.1" y2="290.63" gradientUnits="userSpaceOnUse">
<stop stop-color="#B9B9B9"/>
<stop offset="1" stop-color="#325894"/>
</linearGradient>
<linearGradient id="paint34_linear_113_131" x1="689.14" y1="303.41" x2="706.62" y2="303.41" gradientUnits="userSpaceOnUse">
<stop stop-color="#B9B9B9"/>
<stop offset="1" stop-color="#325894"/>
</linearGradient>
<linearGradient id="paint35_linear_113_131" x1="675.73" y1="324.515" x2="696.84" y2="324.515" gradientUnits="userSpaceOnUse">
<stop stop-color="#B9B9B9"/>
<stop offset="1" stop-color="#325894"/>
</linearGradient>
<linearGradient id="paint36_linear_113_131" x1="629.81" y1="362.815" x2="667.29" y2="362.815" gradientUnits="userSpaceOnUse">
<stop stop-color="#B9B9B9"/>
<stop offset="1" stop-color="#325894"/>
</linearGradient>
<linearGradient id="paint37_linear_113_131" x1="729.58" y1="257.115" x2="761.58" y2="257.115" gradientUnits="userSpaceOnUse">
<stop stop-color="#B9B9B9"/>
<stop offset="1" stop-color="#325894"/>
</linearGradient>
<linearGradient id="paint38_linear_113_131" x1="498.387" y1="740.005" x2="665.14" y2="740.005" gradientUnits="userSpaceOnUse">
<stop stop-color="#B9B9B9"/>
<stop offset="1" stop-color="#325894"/>
</linearGradient>
<linearGradient id="paint39_linear_113_131" x1="425.83" y1="519.5" x2="442.19" y2="519.5" gradientUnits="userSpaceOnUse">
<stop stop-color="#B9B9B9"/>
<stop offset="1" stop-color="#325894"/>
</linearGradient>
<linearGradient id="paint40_linear_113_131" x1="400.47" y1="571.22" x2="450.14" y2="571.22" gradientUnits="userSpaceOnUse">
<stop stop-color="#B9B9B9"/>
<stop offset="1" stop-color="#325894"/>
</linearGradient>
<linearGradient id="paint41_linear_113_131" x1="499.64" y1="725.205" x2="589.71" y2="725.205" gradientUnits="userSpaceOnUse">
<stop stop-color="#B9B9B9"/>
<stop offset="1" stop-color="#325894"/>
</linearGradient>
<linearGradient id="paint42_linear_113_131" x1="768.14" y1="381.33" x2="802.81" y2="381.33" gradientUnits="userSpaceOnUse">
<stop stop-color="#B9B9B9"/>
<stop offset="1" stop-color="#325894"/>
</linearGradient>
<linearGradient id="paint43_linear_113_131" x1="740.25" y1="314.555" x2="777.44" y2="314.555" gradientUnits="userSpaceOnUse">
<stop stop-color="#B9B9B9"/>
<stop offset="1" stop-color="#325894"/>
</linearGradient>
<linearGradient id="paint44_linear_113_131" x1="830.33" y1="442.445" x2="867.44" y2="442.445" gradientUnits="userSpaceOnUse">
<stop stop-color="#B9B9B9"/>
<stop offset="1" stop-color="#325894"/>
</linearGradient>
<linearGradient id="paint45_linear_113_131" x1="819.81" y1="441.925" x2="880.81" y2="441.925" gradientUnits="userSpaceOnUse">
<stop stop-color="#B9B9B9"/>
<stop offset="1" stop-color="#325894"/>
</linearGradient>
<linearGradient id="paint46_linear_113_131" x1="462.56" y1="357.26" x2="403" y2="357.26" gradientUnits="userSpaceOnUse">
<stop stop-color="#B9B9B9"/>
<stop offset="1" stop-color="#325894"/>
</linearGradient>
<linearGradient id="paint47_linear_113_131" x1="473.57" y1="453.225" x2="417.57" y2="453.225" gradientUnits="userSpaceOnUse">
<stop stop-color="#B9B9B9"/>
<stop offset="1" stop-color="#325894"/>
</linearGradient>
<linearGradient id="paint48_linear_113_131" x1="500.09" y1="340.405" x2="420.54" y2="340.405" gradientUnits="userSpaceOnUse">
<stop stop-color="#B9B9B9"/>
<stop offset="1" stop-color="#325894"/>
</linearGradient>
<linearGradient id="paint49_linear_113_131" x1="500.15" y1="443.555" x2="416.58" y2="443.555" gradientUnits="userSpaceOnUse">
<stop stop-color="#B9B9B9"/>
<stop offset="1" stop-color="#325894"/>
</linearGradient>
<linearGradient id="paint50_linear_113_131" x1="471.958" y1="426.835" x2="434.99" y2="426.835" gradientUnits="userSpaceOnUse">
<stop stop-color="#B9B9B9"/>
<stop offset="1" stop-color="#325894"/>
</linearGradient>
<linearGradient id="paint51_linear_113_131" x1="451.742" y1="473.995" x2="385.02" y2="473.995" gradientUnits="userSpaceOnUse">
<stop stop-color="#B9B9B9"/>
<stop offset="1" stop-color="#325894"/>
</linearGradient>
<linearGradient id="paint52_linear_113_131" x1="500.12" y1="578.02" x2="465.13" y2="578.02" gradientUnits="userSpaceOnUse">
<stop stop-color="#B9B9B9"/>
<stop offset="1" stop-color="#325894"/>
</linearGradient>
<linearGradient id="paint53_linear_113_131" x1="489.12" y1="645.89" x2="414.68" y2="645.89" gradientUnits="userSpaceOnUse">
<stop stop-color="#B9B9B9"/>
<stop offset="1" stop-color="#325894"/>
</linearGradient>
<linearGradient id="paint54_linear_113_131" x1="407.308" y1="548.655" x2="327.7" y2="548.655" gradientUnits="userSpaceOnUse">
<stop stop-color="#B9B9B9"/>
<stop offset="1" stop-color="#325894"/>
</linearGradient>
<linearGradient id="paint55_linear_113_131" x1="377" y1="626.755" x2="261.58" y2="626.755" gradientUnits="userSpaceOnUse">
<stop stop-color="#B9B9B9"/>
<stop offset="1" stop-color="#325894"/>
</linearGradient>
<linearGradient id="paint56_linear_113_131" x1="329" y1="624.145" x2="266.19" y2="624.145" gradientUnits="userSpaceOnUse">
<stop stop-color="#B9B9B9"/>
<stop offset="1" stop-color="#325894"/>
</linearGradient>
<linearGradient id="paint57_linear_113_131" x1="254" y1="504.665" x2="212.842" y2="504.665" gradientUnits="userSpaceOnUse">
<stop stop-color="#B9B9B9"/>
<stop offset="1" stop-color="#325894"/>
</linearGradient>
<linearGradient id="paint58_linear_113_131" x1="338.68" y1="586.435" x2="185.33" y2="586.435" gradientUnits="userSpaceOnUse">
<stop stop-color="#B9B9B9"/>
<stop offset="1" stop-color="#325894"/>
</linearGradient>
<linearGradient id="paint59_linear_113_131" x1="250.52" y1="377.445" x2="161.93" y2="377.445" gradientUnits="userSpaceOnUse">
<stop stop-color="#B9B9B9"/>
<stop offset="1" stop-color="#325894"/>
</linearGradient>
<linearGradient id="paint60_linear_113_131" x1="224.18" y1="321.645" x2="188.89" y2="321.645" gradientUnits="userSpaceOnUse">
<stop stop-color="#B9B9B9"/>
<stop offset="1" stop-color="#325894"/>
</linearGradient>
<linearGradient id="paint61_linear_113_131" x1="284.89" y1="428.89" x2="242.22" y2="428.89" gradientUnits="userSpaceOnUse">
<stop stop-color="#B9B9B9"/>
<stop offset="1" stop-color="#325894"/>
</linearGradient>
<linearGradient id="paint62_linear_113_131" x1="330.22" y1="446.15" x2="280.15" y2="446.15" gradientUnits="userSpaceOnUse">
<stop stop-color="#B9B9B9"/>
<stop offset="1" stop-color="#325894"/>
</linearGradient>
<linearGradient id="paint63_linear_113_131" x1="347.7" y1="451.26" x2="324.3" y2="451.26" gradientUnits="userSpaceOnUse">
<stop stop-color="#B9B9B9"/>
<stop offset="1" stop-color="#325894"/>
</linearGradient>
<linearGradient id="paint64_linear_113_131" x1="334.85" y1="422.37" x2="315" y2="422.37" gradientUnits="userSpaceOnUse">
<stop stop-color="#B9B9B9"/>
<stop offset="1" stop-color="#325894"/>
</linearGradient>
<linearGradient id="paint65_linear_113_131" x1="375" y1="419.7" x2="360.48" y2="419.7" gradientUnits="userSpaceOnUse">
<stop stop-color="#B9B9B9"/>
<stop offset="1" stop-color="#325894"/>
</linearGradient>
<linearGradient id="paint66_linear_113_131" x1="343" y1="376.965" x2="305" y2="376.965" gradientUnits="userSpaceOnUse">
<stop stop-color="#B9B9B9"/>
<stop offset="1" stop-color="#325894"/>
</linearGradient>
<linearGradient id="paint67_linear_113_131" x1="407.31" y1="473.665" x2="378.81" y2="473.665" gradientUnits="userSpaceOnUse">
<stop stop-color="#B9B9B9"/>
<stop offset="1" stop-color="#325894"/>
</linearGradient>
<linearGradient id="paint68_linear_113_131" x1="429.04" y1="213.405" x2="302.96" y2="213.405" gradientUnits="userSpaceOnUse">
<stop stop-color="#B9B9B9"/>
<stop offset="1" stop-color="#325894"/>
</linearGradient>
<linearGradient id="paint69_linear_113_131" x1="500.15" y1="262.37" x2="476.15" y2="262.37" gradientUnits="userSpaceOnUse">
<stop stop-color="#B9B9B9"/>
<stop offset="1" stop-color="#325894"/>
</linearGradient>
<linearGradient id="paint70_linear_113_131" x1="484.11" y1="200" x2="397" y2="200" gradientUnits="userSpaceOnUse">
<stop stop-color="#B9B9B9"/>
<stop offset="1" stop-color="#325894"/>
</linearGradient>
<linearGradient id="paint71_linear_113_131" x1="578" y1="234.485" x2="561.11" y2="234.485" gradientUnits="userSpaceOnUse">
<stop stop-color="#B9B9B9"/>
<stop offset="1" stop-color="#325894"/>
</linearGradient>
<linearGradient id="paint72_linear_113_131" x1="613.93" y1="137.272" x2="517.528" y2="137.272" gradientUnits="userSpaceOnUse">
<stop stop-color="#B9B9B9"/>
<stop offset="1" stop-color="#325894"/>
</linearGradient>
<linearGradient id="paint73_linear_113_131" x1="372.01" y1="149.885" x2="277.56" y2="149.885" gradientUnits="userSpaceOnUse">
<stop stop-color="#B9B9B9"/>
<stop offset="1" stop-color="#325894"/>
</linearGradient>
<linearGradient id="paint74_linear_113_131" x1="323.33" y1="200.445" x2="270.22" y2="200.445" gradientUnits="userSpaceOnUse">
<stop stop-color="#B9B9B9"/>
<stop offset="1" stop-color="#325894"/>
</linearGradient>
<linearGradient id="paint75_linear_113_131" x1="426.37" y1="675.41" x2="383.41" y2="675.41" gradientUnits="userSpaceOnUse">
<stop stop-color="#B9B9B9"/>
<stop offset="1" stop-color="#325894"/>
</linearGradient>
<linearGradient id="paint76_linear_113_131" x1="408.3" y1="639.445" x2="360.74" y2="639.445" gradientUnits="userSpaceOnUse">
<stop stop-color="#B9B9B9"/>
<stop offset="1" stop-color="#325894"/>
</linearGradient>
<linearGradient id="paint77_linear_113_131" x1="369.63" y1="469.19" x2="346.96" y2="469.19" gradientUnits="userSpaceOnUse">
<stop stop-color="#B9B9B9"/>
<stop offset="1" stop-color="#325894"/>
</linearGradient>
<linearGradient id="paint78_linear_113_131" x1="300.61" y1="251.11" x2="223" y2="251.11" gradientUnits="userSpaceOnUse">
<stop stop-color="#B9B9B9"/>
<stop offset="1" stop-color="#325894"/>
</linearGradient>
<linearGradient id="paint79_linear_113_131" x1="306.44" y1="290.63" x2="283.7" y2="290.63" gradientUnits="userSpaceOnUse">
<stop stop-color="#B9B9B9"/>
<stop offset="1" stop-color="#325894"/>
</linearGradient>
<linearGradient id="paint80_linear_113_131" x1="310.67" y1="303.41" x2="293.19" y2="303.41" gradientUnits="userSpaceOnUse">
<stop stop-color="#B9B9B9"/>
<stop offset="1" stop-color="#325894"/>
</linearGradient>
<linearGradient id="paint81_linear_113_131" x1="324.07" y1="324.515" x2="302.96" y2="324.515" gradientUnits="userSpaceOnUse">
<stop stop-color="#B9B9B9"/>
<stop offset="1" stop-color="#325894"/>
</linearGradient>
<linearGradient id="paint82_linear_113_131" x1="370" y1="362.815" x2="332.52" y2="362.815" gradientUnits="userSpaceOnUse">
<stop stop-color="#B9B9B9"/>
<stop offset="1" stop-color="#325894"/>
</linearGradient>
<linearGradient id="paint83_linear_113_131" x1="270.22" y1="257.115" x2="238.22" y2="257.115" gradientUnits="userSpaceOnUse">
<stop stop-color="#B9B9B9"/>
<stop offset="1" stop-color="#325894"/>
</linearGradient>
<linearGradient id="paint84_linear_113_131" x1="501.422" y1="740.005" x2="334.67" y2="740.005" gradientUnits="userSpaceOnUse">
<stop stop-color="#B9B9B9"/>
<stop offset="1" stop-color="#325894"/>
</linearGradient>
<linearGradient id="paint85_linear_113_131" x1="573.98" y1="519.5" x2="557.61" y2="519.5" gradientUnits="userSpaceOnUse">
<stop stop-color="#B9B9B9"/>
<stop offset="1" stop-color="#325894"/>
</linearGradient>
<linearGradient id="paint86_linear_113_131" x1="599.33" y1="571.22" x2="549.67" y2="571.22" gradientUnits="userSpaceOnUse">
<stop stop-color="#B9B9B9"/>
<stop offset="1" stop-color="#325894"/>
</linearGradient>
<linearGradient id="paint87_linear_113_131" x1="500.17" y1="725.205" x2="410.09" y2="725.205" gradientUnits="userSpaceOnUse">
<stop stop-color="#B9B9B9"/>
<stop offset="1" stop-color="#325894"/>
</linearGradient>
<linearGradient id="paint88_linear_113_131" x1="231.67" y1="381.33" x2="197" y2="381.33" gradientUnits="userSpaceOnUse">
<stop stop-color="#B9B9B9"/>
<stop offset="1" stop-color="#325894"/>
</linearGradient>
<linearGradient id="paint89_linear_113_131" x1="259.56" y1="314.555" x2="222.37" y2="314.555" gradientUnits="userSpaceOnUse">
<stop stop-color="#B9B9B9"/>
<stop offset="1" stop-color="#325894"/>
</linearGradient>
<linearGradient id="paint90_linear_113_131" x1="169.48" y1="442.445" x2="132.37" y2="442.445" gradientUnits="userSpaceOnUse">
<stop stop-color="#B9B9B9"/>
<stop offset="1" stop-color="#325894"/>
</linearGradient>
<linearGradient id="paint91_linear_113_131" x1="180" y1="441.925" x2="119" y2="441.925" gradientUnits="userSpaceOnUse">
<stop stop-color="#B9B9B9"/>
<stop offset="1" stop-color="#325894"/>
</linearGradient>
</defs>
</svg>
